name C:\Users\antoi\Documents\MyRepositories\upper-imu-dc\Results\main_tracking\Case_79\ABD01_angularVelocities_groundFrame.mot
datacolumns 4
datarows 141
range 7.88000000 9.28000000
endheader 
time	radius_imu_x	radius_imu_y	radius_imu_z	
          7.88000000	          1.35458691	         -0.22688076	         -0.71339376	
          7.89000000	          1.37182647	         -0.21464323	         -0.70650444	
          7.90000000	          1.38859707	         -0.20295881	         -0.69577764	
          7.91000000	          1.40469160	         -0.19207728	         -0.68111241	
          7.92000000	          1.41989182	         -0.18225055	         -0.66248017	
          7.93000000	          1.43397260	         -0.17372523	         -0.63993536	
          7.94000000	          1.44671110	         -0.16673542	         -0.61362394	
          7.95000000	          1.45790276	         -0.16147751	         -0.58375969	
          7.96000000	          1.46738009	         -0.15808753	         -0.55060012	
          7.97000000	          1.47500626	         -0.15670239	         -0.51456511	
          7.98000000	          1.48067338	         -0.15745180	         -0.47623362	
          7.99000000	          1.48433186	         -0.16039312	         -0.43624520	
          8.00000000	          1.48601827	         -0.16547092	         -0.39523025	
          8.01000000	          1.48585140	         -0.17245943	         -0.35362704	
          8.02000000	          1.48393238	         -0.18114356	         -0.31192981	
          8.03000000	          1.48027563	         -0.19139958	         -0.27081858	
          8.04000000	          1.47493669	         -0.20300165	         -0.23085442	
          8.05000000	          1.46811250	         -0.21562133	         -0.19245373	
          8.06000000	          1.46007845	         -0.22882064	         -0.15578090	
          8.07000000	          1.45101945	         -0.24225572	         -0.12108135	
          8.08000000	          1.44100520	         -0.25572711	         -0.08879231	
          8.09000000	          1.43011216	         -0.26898421	         -0.05912171	
          8.10000000	          1.41845185	         -0.28174108	         -0.03209138	
          8.11000000	          1.40615520	         -0.29373061	         -0.00763929	
          8.12000000	          1.39334297	         -0.30474393	          0.01428775	
          8.13000000	          1.38013026	         -0.31463903	          0.03366498	
          8.14000000	          1.36665510	         -0.32328182	          0.05054598	
          8.15000000	          1.35307616	         -0.33054200	          0.06507570	
          8.16000000	          1.33956398	         -0.33630715	          0.07743475	
          8.17000000	          1.32629724	         -0.34048595	          0.08780969	
          8.18000000	          1.31346053	         -0.34300847	          0.09637805	
          8.19000000	          1.30124212	         -0.34382319	          0.10331630	
          8.20000000	          1.28982828	         -0.34289862	          0.10879886	
          8.21000000	          1.27939595	         -0.34022871	          0.11299696	
          8.22000000	          1.27010737	         -0.33583751	          0.11608878	
          8.23000000	          1.26210473	         -0.32978331	          0.11825455	
          8.24000000	          1.25550748	         -0.32215959	          0.11967244	
          8.25000000	          1.25041200	         -0.31309278	          0.12051803	
          8.26000000	          1.24689197	         -0.30273739	          0.12095223	
          8.27000000	          1.24499924	         -0.29126730	          0.12111435	
          8.28000000	          1.24476318	         -0.27886581	          0.12111178	
          8.29000000	          1.24618864	         -0.26571626	          0.12101077	
          8.30000000	          1.24925356	         -0.25199430	          0.12083934	
          8.31000000	          1.25390715	         -0.23786401	          0.12059207	
          8.32000000	          1.26007036	         -0.22347716	          0.12024265	
          8.33000000	          1.26763851	         -0.20897475	          0.11976175	
          8.34000000	          1.27648515	         -0.19449159	          0.11913511	
          8.35000000	          1.28646891	         -0.18016073	          0.11838350	
          8.36000000	          1.29744093	         -0.16611709	          0.11757783	
          8.37000000	          1.30924843	         -0.15250294	          0.11685028	
          8.38000000	          1.32173544	         -0.13947291	          0.11639946	
          8.39000000	          1.33474234	         -0.12719778	          0.11648301	
          8.40000000	          1.34810488	         -0.11586678	          0.11740261	
          8.41000000	          1.36165288	         -0.10568774	          0.11948254	
          8.42000000	          1.37521096	         -0.09688472	          0.12304033	
          8.43000000	          1.38860249	         -0.08969357	          0.12836419	
          8.44000000	          1.40165582	         -0.08435396	          0.13568675	
          8.45000000	          1.41421229	         -0.08109845	          0.14516267	
          8.46000000	          1.42613460	         -0.08014051	          0.15685831	
          8.47000000	          1.43731342	         -0.08166068	          0.17074397	
          8.48000000	          1.44767284	         -0.08579561	          0.18670332	
          8.49000000	          1.45717058	         -0.09262831	          0.20454647	
          8.50000000	          1.46578509	         -0.10218361	          0.22403549	
          8.51000000	          1.47352648	         -0.11441712	          0.24488444	
          8.52000000	          1.48042136	         -0.12922197	          0.26679483	
          8.53000000	          1.48650086	         -0.14643081	          0.28946922	
          8.54000000	          1.49180316	         -0.16581565	          0.31261155	
          8.55000000	          1.49635820	         -0.18709772	          0.33593711	
          8.56000000	          1.50018270	         -0.20994843	          0.35915396	
          8.57000000	          1.50327794	         -0.23398919	          0.38194248	
          8.58000000	          1.50563223	         -0.25878706	          0.40391887	
          8.59000000	          1.50722867	         -0.28385570	          0.42462183	
          8.60000000	          1.50805647	         -0.30865538	          0.44350367	
          8.61000000	          1.50812214	         -0.33259357	          0.45993030	
          8.62000000	          1.50745341	         -0.35502859	          0.47319076	
          8.63000000	          1.50609616	         -0.37528014	          0.48252850	
          8.64000000	          1.50410911	         -0.39264691	          0.48718613	
          8.65000000	          1.50155676	         -0.40643579	          0.48646509	
          8.66000000	          1.49850173	         -0.41600429	          0.47979725	
          8.67000000	          1.49499634	         -0.42081726	          0.46682912	
          8.68000000	          1.49107538	         -0.42051388	          0.44750962	
          8.69000000	          1.48675116	         -0.41496925	          0.42215263	
          8.70000000	          1.48201178	         -0.40434098	          0.39146607	
          8.71000000	          1.47682330	         -0.38908554	          0.35652888	
          8.72000000	          1.47113183	         -0.36993639	          0.31871300	
          8.73000000	          1.46487416	         -0.34784272	          0.27955584	
          8.74000000	          1.45799215	         -0.32388312	          0.24061310	
          8.75000000	          1.45044127	         -0.29917481	          0.20332749	
          8.76000000	          1.44219939	         -0.27478661	          0.16892057	
          8.77000000	          1.43326675	         -0.25167444	          0.13833489	
          8.78000000	          1.42366487	         -0.23063660	          0.11220974	
          8.79000000	          1.41343842	         -0.21228765	          0.09088278	
          8.80000000	          1.40265705	         -0.19704732	          0.07441227	
          8.81000000	          1.39140266	         -0.18513361	          0.06261009	
          8.82000000	          1.37978346	         -0.17657636	          0.05508321	
          8.83000000	          1.36794760	         -0.17124039	          0.05127776	
          8.84000000	          1.35606670	         -0.16884161	          0.05051959	
          8.85000000	          1.34432193	         -0.16897285	          0.05205767	
          8.86000000	          1.33288905	         -0.17112236	          0.05510700	
          8.87000000	          1.32191429	         -0.17471270	          0.05888677	
          8.88000000	          1.31149305	         -0.17913898	          0.06265330	
          8.89000000	          1.30166433	         -0.18378395	          0.06572570	
          8.90000000	          1.29241391	         -0.18803911	          0.06750638	
          8.91000000	          1.28368694	         -0.19131818	          0.06749186	
          8.92000000	          1.27540551	         -0.19306078	          0.06527685	
          8.93000000	          1.26748568	         -0.19272852	          0.06055298	
          8.94000000	          1.25984997	         -0.18979998	          0.05310514	
          8.95000000	          1.25243265	         -0.18376916	          0.04280736	
          8.96000000	          1.24517214	         -0.17414661	          0.02961924	
          8.97000000	          1.23800595	         -0.16047955	          0.01358495	
          8.98000000	          1.23086999	         -0.14238636	         -0.00516415	
          8.99000000	          1.22369586	         -0.11958388	         -0.02640760	
          9.00000000	          1.21639325	         -0.09191077	         -0.04983990	
          9.01000000	          1.20884917	         -0.05935149	         -0.07507571	
          9.02000000	          1.20094049	         -0.02205543	         -0.10165739	
          9.03000000	          1.19254059	          0.01965535	         -0.12906611	
          9.04000000	          1.18353506	          0.06528704	         -0.15673307	
          9.05000000	          1.17382062	          0.11418310	         -0.18405852	
          9.06000000	          1.16329662	          0.16554372	         -0.21043588	
          9.07000000	          1.15186699	          0.21845768	         -0.23527641	
          9.08000000	          1.13944421	          0.27194660	         -0.25803693	
          9.09000000	          1.12594913	          0.32502193	         -0.27825242	
          9.10000000	          1.11130981	          0.37674873	         -0.29556790	
          9.11000000	          1.09546495	          0.42630405	         -0.30975926	
          9.12000000	          1.07836941	          0.47302238	         -0.32074087	
          9.13000000	          1.05999944	          0.51640837	         -0.32855215	
          9.14000000	          1.04035511	          0.55610230	         -0.33331941	
          9.15000000	          1.01945913	          0.59182463	         -0.33521097	
          9.16000000	          0.99735189	          0.62330364	         -0.33439058	
          9.17000000	          0.97408443	          0.65020523	         -0.33097907	
          9.18000000	          0.94971233	          0.67210520	         -0.32504135	
          9.19000000	          0.92429195	          0.68849748	         -0.31659233	
          9.20000000	          0.89788046	          0.69883951	         -0.30562043	
          9.21000000	          0.87054011	          0.70264613	         -0.29213344	
          9.22000000	          0.84234623	          0.69958367	         -0.27620141	
          9.23000000	          0.81339596	          0.68955078	         -0.25798967	
          9.24000000	          0.78381376	          0.67270716	         -0.23776344	
          9.25000000	          0.75375401	          0.64952540	         -0.21590335	
          9.26000000	          0.72337703	          0.62084891	         -0.19293840	
          9.27000000	          0.69285578	          0.58777668	         -0.16947148	
          9.28000000	          0.66240176	          0.55149606	         -0.14607552	
